<svg width="12" height="13" viewBox="0 0 12 13" fill="none" xmlns="http://www.w3.org/2000/svg">
<path d="M11.7853 1.99078C11.7853 1.73238 11.6827 1.48457 11.5 1.30185C11.3172 1.11914 11.0694 1.01649 10.811 1.01649L3.01672 0.967773C2.75832 0.967773 2.5105 1.07042 2.32779 1.25314C2.14507 1.43585 2.04243 1.68367 2.04243 1.94206C2.04243 2.20046 2.14507 2.44828 2.32779 2.63099C2.5105 2.81371 2.75832 2.91635 3.01672 2.91635H8.43377L0.376389 10.9932C0.28507 11.0838 0.212589 11.1915 0.163126 11.3103C0.113662 11.429 0.0881958 11.5563 0.0881958 11.685C0.0881958 11.8136 0.113662 11.9409 0.163126 12.0597C0.212589 12.1784 0.28507 12.2861 0.376389 12.3767C0.466962 12.468 0.57472 12.5405 0.693446 12.59C0.812172 12.6394 0.939517 12.6649 1.06814 12.6649C1.19675 12.6649 1.3241 12.6394 1.44282 12.59C1.56155 12.5405 1.66931 12.468 1.75988 12.3767L9.83675 4.29985V9.73638C9.83675 9.99478 9.93939 10.2426 10.1221 10.4253C10.3048 10.608 10.5526 10.7107 10.811 10.7107C11.0694 10.7107 11.3172 10.608 11.5 10.4253C11.6827 10.2426 11.7853 9.99478 11.7853 9.73638V1.99078Z" fill="#9A9A9A"/>
</svg>
