<svg width="44" height="30" viewBox="0 0 44 30" fill="none" xmlns="http://www.w3.org/2000/svg">
<g clip-path="url(#clip0_25_37)">
<path d="M17.7597 29.2275C16.2061 29.2275 14.672 28.8073 13.32 28.0132C13.0366 27.847 12.8552 27.5269 12.8473 27.1804C12.8394 26.831 13.0066 26.5015 13.2848 26.3192C15.5909 24.8056 16.9675 22.173 16.9675 19.277V10.2914C16.9675 7.57762 17.9648 5.0253 19.7753 3.10468C21.5524 1.21994 23.8893 0.197314 26.3477 0.228475C27.859 0.246416 29.3536 0.664721 30.6712 1.43807C30.9573 1.60614 31.1404 1.92719 31.1483 2.27657C31.1562 2.62594 30.9881 2.95738 30.71 3.13962C28.4065 4.65326 27.0316 7.28396 27.0316 10.1762V19.277C27.0325 24.764 22.8727 29.2275 17.7597 29.2275ZM15.1015 27.0227C15.9447 27.3588 16.8337 27.5279 17.757 27.5279C21.9996 27.5279 25.4482 23.8264 25.4482 19.277V10.1762C25.4482 7.12249 26.7192 4.31144 28.8985 2.43331C28.0826 2.10849 27.2218 1.93947 26.3301 1.92814C26.3011 1.92814 26.272 1.92814 26.243 1.92814C24.2397 1.92814 22.342 2.77325 20.8888 4.31427C19.381 5.9129 18.551 8.03653 18.551 10.2924V19.2779C18.5519 22.3326 17.2809 25.1446 15.1015 27.0227Z" fill="white"/>
<path d="M44 11.0251H33.935V10.1753C33.935 7.28302 32.5011 4.5815 30.1853 3.0943L30.0832 3.03198C28.9222 2.30962 27.5932 1.9272 26.2403 1.9272V0.227539H34.7245C39.8393 0.227539 44 4.68915 44 10.1724V11.0251ZM35.485 9.32545H42.3751C41.979 5.17544 38.6986 1.9272 34.7245 1.9272H31.4255C33.7466 3.60892 35.2438 6.34349 35.485 9.32545Z" fill="white"/>
<path d="M34.7245 29.2277L26.2403 29.2248V27.5252C27.5967 27.5252 28.9249 27.1437 30.0832 26.4232C32.4597 24.953 33.935 22.2165 33.935 19.2799V18.4301L34.7271 18.4272H44V19.2799C44 24.7651 39.8393 29.2277 34.7245 29.2277ZM31.4246 27.527L34.7245 27.528C38.6986 27.528 41.979 24.2779 42.3751 20.1269H35.485C35.2447 23.1136 33.7466 25.8472 31.4246 27.527Z" fill="white"/>
<path d="M17.757 29.2277H9.27284C4.15979 29.2277 0 24.7651 0 19.2799V18.4301L0.792174 18.4272H10.065V19.2771C10.065 22.1741 11.4962 24.8737 13.8076 26.3562L13.9167 26.4232C15.0777 27.1465 16.4059 27.528 17.7561 27.528V29.2277H17.757ZM1.62484 20.1269C2.02268 24.2798 5.30053 27.528 9.27284 27.528H12.5736C10.2516 25.8491 8.75441 23.1136 8.51411 20.1269H1.62484Z" fill="white"/>
<path d="M34.7245 18.4272H30.4811V20.1269H34.7245V18.4272Z" fill="white"/>
</g>
<defs>
<clipPath id="clip0_25_37">
<rect width="44" height="29" fill="white" transform="translate(0 0.227539)"/>
</clipPath>
</defs>
</svg>
